HIERARCHY
ROOT Root
{
	OFFSET 0.00000 0.00000 0.00000
	CHANNELS 6 Xposition Yposition Zposition Zrotation Xrotation Yrotation
	JOINT Hip
	{
		OFFSET 0 0 0	
		CHANNELS 3 Zrotation Xrotation Yrotation
		JOINT Tummy
		{
			OFFSET 0 0.04 0	
			CHANNELS 3 Zrotation Xrotation Yrotation
			JOINT ChestBottom
			{
				OFFSET 0 0.194 0	
				CHANNELS 3 Zrotation Xrotation Yrotation
				JOINT ChestTop
				{
					OFFSET 0 0.166 0	
					CHANNELS 3 Zrotation Xrotation Yrotation
					JOINT LeftCollar
					{
						OFFSET 0 0.1 0	
						CHANNELS 3 Zrotation Xrotation Yrotation
						JOINT LeftUpperArm
						{
							OFFSET 0.156 -0.02 0.03	
							CHANNELS 3 Zrotation Xrotation Yrotation
							JOINT LeftForeArm
							{
								OFFSET 0.035 -0.27 -0.01	
								CHANNELS 3 Zrotation Xrotation Yrotation
								JOINT LeftHand
								{
									OFFSET 0.01 -0.27 0.01	
									CHANNELS 3 Zrotation Xrotation Yrotation
									End Site
									{
										OFFSET 0 -0.15 0
									}
								}
							}
						}
					}
					JOINT RightCollar
					{
						OFFSET 0 0.1 0	
						CHANNELS 3 Zrotation Xrotation Yrotation
						JOINT RightUpperArm
						{
							OFFSET -0.156 -0.02 0.03	
							CHANNELS 3 Zrotation Xrotation Yrotation
							JOINT RightForeArm
							{
								OFFSET -0.035 -0.27 -0.01	
								CHANNELS 3 Zrotation Xrotation Yrotation
								JOINT RightHand
								{
									OFFSET -0.01 -0.27 0.01	
									CHANNELS 3 Zrotation Xrotation Yrotation
									End Site
									{
										OFFSET 0 -0.15 0
									}
								}
							}
						}
					}
					JOINT Neck
					{
						OFFSET 0 0.1 0	
						CHANNELS 3 Zrotation Xrotation Yrotation
						JOINT Head
						{
							OFFSET 0 0.127 0.03	
							CHANNELS 3 Zrotation Xrotation Yrotation
							End Site
							{
								OFFSET 0 0.127 0.03
							}
						}
					}
				}
			}
		}
	}
	JOINT LeftHip
	{
		OFFSET 0 0 0	
		CHANNELS 3 Zrotation Xrotation Yrotation
		JOINT LeftThigh
		{
			OFFSET 0.088 -0.06 0	
			CHANNELS 3 Zrotation Xrotation Yrotation
			JOINT LeftLowerLeg
			{
				OFFSET 0 -0.39 0.02	
				CHANNELS 3 Zrotation Xrotation Yrotation
				JOINT LeftFootTop
				{
					OFFSET 0 -0.43 -0.02	
					CHANNELS 3 Zrotation Xrotation Yrotation
					JOINT LeftFootFront
					{
						OFFSET 0 -0.07 0.085	
						CHANNELS 3 Zrotation Xrotation Yrotation
						End Site
						{
							OFFSET 0 -0.005 0.09
						}
					}
				}
				JOINT LeftHeel
				{
					OFFSET 0 -0.43 -0.02	
					CHANNELS 3 Zrotation Xrotation Yrotation
					End Site
					{
						OFFSET 0 -0.075 -0.05
					}
				}
			}
		}
	}
	JOINT RightHip
	{
		OFFSET 0 0 0	
		CHANNELS 3 Zrotation Xrotation Yrotation
		JOINT RightThigh
		{
			OFFSET -0.088 -0.06 0	
			CHANNELS 3 Zrotation Xrotation Yrotation
			JOINT RightLowerLeg
			{
				OFFSET 0 -0.39 0.02	
				CHANNELS 3 Zrotation Xrotation Yrotation
				JOINT RightFootTop
				{
					OFFSET 0 -0.43 -0.02	
					CHANNELS 3 Zrotation Xrotation Yrotation
					JOINT RightFootFront
					{
						OFFSET 0 -0.07 0.085	
						CHANNELS 3 Zrotation Xrotation Yrotation
						End Site
						{
							OFFSET 0 -0.005 0.09
						}
					}
				}
				JOINT RightHeel
				{
					OFFSET 0 -0.43 -0.02	
					CHANNELS 3 Zrotation Xrotation Yrotation
					End Site
					{
						OFFSET 0 -0.075 -0.05
					}
				}
			}
		}
	}
}
MOTION
Frames: 20
Frame Time: 0.05
0 0.955 0 -0 0 -0 -6.8611 36.651 -46.447 -2.8734 -5.8253 -32.123 -2.8734 -5.8253 -32.123 -2.1981 -5.016 -26.948 -0 0 -0 -71.57 -77.687 33.252 68.66 31.505 11.913 -0 0 -0 -0 0 -0 -50.792 30.653 147.11 -68.718 16.07 -125.33 -0 0 -0 -0 0 -0 -0 0 -0 -0 0 -0 -0 0 -0 -0 0 -0 -0 0 -0 -0 0 -0 -0 0 -0 -0 0 -0 -0 0 -0 -0 0 -0 -0 0 -0 -0 0 -0 -0 0 -0 
0 0.955 0 -0 0 -0 -8.1783 33.584 -43.84 -4.5864 -5.0476 -31.574 -4.5864 -5.0476 -31.574 -3.6735 -4.4223 -26.485 -0 0 -0 3.3776 -73.583 90.999 56.021 32.811 9.7279 -0 0 -0 -0 0 -0 -49.977 35.326 150.74 -72.184 22.959 -124.02 -0 0 -0 -0 0 -0 -0 0 -0 -0 0 -0 -0 0 -0 -0 0 -0 -0 0 -0 -0 0 -0 -0 0 -0 -0 0 -0 -0 0 -0 -0 0 -0 -0 0 -0 -0 0 -0 -0 0 -0 
0 0.955 0 -0 0 -0 -8.7829 31.356 -42.743 -5.5315 -4.8693 -32.207 -5.5315 -4.8693 -32.207 -4.473 -4.3119 -27.014 -0 0 -0 36.713 -60.262 109.24 41.992 33.557 13.609 -0 0 -0 -0 0 -0 -52.649 36.213 155.05 -76.557 27.221 -122.31 -0 0 -0 -0 0 -0 -0 0 -0 -0 0 -0 -0 0 -0 -0 0 -0 -0 0 -0 -0 0 -0 -0 0 -0 -0 0 -0 -0 0 -0 -0 0 -0 -0 0 -0 -0 0 -0 -0 0 -0 
0 0.955 0 -0 0 -0 -7.6586 31.655 -45.509 -4.9472 -5.4102 -32.053 -4.9472 -5.4102 -32.053 -3.9607 -4.7443 -26.881 -0 0 -0 39.652 -51.302 104.67 33.794 28.714 19.071 -0 0 -0 -0 0 -0 -55.285 35.448 156.77 -79.647 30.359 -123.36 -0 0 -0 -0 0 -0 -0 0 -0 -0 0 -0 -0 0 -0 -0 0 -0 -0 0 -0 -0 0 -0 -0 0 -0 -0 0 -0 -0 0 -0 -0 0 -0 -0 0 -0 -0 0 -0 -0 0 -0 
0 0.955 0 -0 0 -0 -6.6387 31.656 -48.259 -4.1256 -5.5898 -32.121 -4.1256 -5.5898 -32.121 -3.2615 -4.865 -26.941 -0 0 -0 38.589 -44.847 98.671 27.421 24.357 25.092 -0 0 -0 -0 0 -0 -58.019 32.616 157.29 -80.391 30.648 -126.64 -0 0 -0 -0 0 -0 -0 0 -0 -0 0 -0 -0 0 -0 -0 0 -0 -0 0 -0 -0 0 -0 -0 0 -0 -0 0 -0 -0 0 -0 -0 0 -0 -0 0 -0 -0 0 -0 -0 0 -0 
0 0.955 0 -0 0 -0 -6.197 31.944 -51.317 -3.3857 -6.002 -31.991 -3.3857 -6.002 -31.991 -2.6235 -5.1835 -26.832 -0 0 -0 38.019 -40.849 94.923 23.786 21.821 29.191 -0 0 -0 -0 0 -0 -62.855 29.725 157.77 -80.823 28.037 -130.19 -0 0 -0 -0 0 -0 -0 0 -0 -0 0 -0 -0 0 -0 -0 0 -0 -0 0 -0 -0 0 -0 -0 0 -0 -0 0 -0 -0 0 -0 -0 0 -0 -0 0 -0 -0 0 -0 -0 0 -0 
0 0.955 0 -0 0 -0 -6.1868 32.568 -54.656 -2.5457 -6.2248 -31.949 -2.5456 -6.2248 -31.949 -1.9079 -5.3394 -26.801 -0 0 -0 39.96 -39.997 97.629 23.898 21.287 28.355 -0 0 -0 -0 0 -0 -68.256 26.086 158.34 -82.251 25.018 -133.53 -0 0 -0 -0 0 -0 -0 0 -0 -0 0 -0 -0 0 -0 -0 0 -0 -0 0 -0 -0 0 -0 -0 0 -0 -0 0 -0 -0 0 -0 -0 0 -0 -0 0 -0 -0 0 -0 -0 0 -0 
0 0.955 0 -0 0 -0 -6.4292 33.368 -57.191 -1.7929 -5.91 -32.154 -1.7929 -5.91 -32.154 -1.2849 -5.0465 -26.98 -0 0 -0 41.027 -43.001 103.64 26.691 21.361 24.696 -0 0 -0 -0 0 -0 -72.34 22.655 159.11 -83.866 23.521 -137.04 -0 0 -0 -0 0 -0 -0 0 -0 -0 0 -0 -0 0 -0 -0 0 -0 -0 0 -0 -0 0 -0 -0 0 -0 -0 0 -0 -0 0 -0 -0 0 -0 -0 0 -0 -0 0 -0 -0 0 -0 
0 0.955 0 -0 0 -0 -6.5915 34.222 -59.296 -1.2033 -5.4867 -32.671 -1.2033 -5.4867 -32.671 -0.80149 -4.6688 -27.421 -0 0 -0 39.058 -50.443 109.63 31.335 21.325 21.79 -0 0 -0 -0 0 -0 -75.736 19.465 160.96 -85.513 24.353 -140.88 -0 0 -0 -0 0 -0 -0 0 -0 -0 0 -0 -0 0 -0 -0 0 -0 -0 0 -0 -0 0 -0 -0 0 -0 -0 0 -0 -0 0 -0 -0 0 -0 -0 0 -0 -0 0 -0 -0 0 -0 
0 0.955 0 -0 0 -0 -5.4476 35.122 -61.854 -1.0455 -5.4838 -33.618 -1.0455 -5.4838 -33.618 -0.66273 -4.6622 -28.218 -0 0 -0 37.984 -63.473 116.26 39.291 22.326 21.274 -0 0 -0 -0 0 -0 -78.489 17.019 163.31 -87.698 25.838 -143.73 -0 0 -0 -0 0 -0 -0 0 -0 -0 0 -0 -0 0 -0 -0 0 -0 -0 0 -0 -0 0 -0 -0 0 -0 -0 0 -0 -0 0 -0 -0 0 -0 -0 0 -0 -0 0 -0 -0 0 -0 
0 0.955 0 -0 0 -0 -3.308 36.503 -65.378 -0.99751 -6.0138 -34.519 -0.99751 -6.0138 -34.519 -0.59469 -5.1088 -28.971 -0 0 -0 65.524 -80.338 150.76 51.684 25.127 21.6 -0 0 -0 -0 0 -0 -79.711 17.352 165.86 -89.93 27.191 -143.13 -0 0 -0 -0 0 -0 -0 0 -0 -0 0 -0 -0 0 -0 -0 0 -0 -0 0 -0 -0 0 -0 -0 0 -0 -0 0 -0 -0 0 -0 -0 0 -0 -0 0 -0 -0 0 -0 -0 0 -0 
0 0.955 0 -0 0 -0 -1.4222 37.104 -68.812 -1.1004 -6.5137 -34.291 -1.1004 -6.5137 -34.291 -0.66238 -5.5338 -28.774 -0 0 -0 171.3 -73.415 -93.571 65.68 27.546 21.03 -0 0 -0 -0 0 -0 -77.957 21.599 165.28 -89.949 26.667 -139.84 -0 0 -0 -0 0 -0 -0 0 -0 -0 0 -0 -0 0 -0 -0 0 -0 -0 0 -0 -0 0 -0 -0 0 -0 -0 0 -0 -0 0 -0 -0 0 -0 -0 0 -0 -0 0 -0 -0 0 -0 
0 0.955 0 -0 0 -0 -1.2565 37.255 -71.943 -0.81107 -6.6994 -34.045 -0.81106 -6.6994 -34.045 -0.41304 -5.6781 -28.569 -0 0 -0 179.89 -57.601 -70.61 75.712 27.563 21.996 -0 0 -0 -0 0 -0 -74.696 24.058 159.06 -88.28 21.714 -134.75 -0 0 -0 -0 0 -0 -0 0 -0 -0 0 -0 -0 0 -0 -0 0 -0 -0 0 -0 -0 0 -0 -0 0 -0 -0 0 -0 -0 0 -0 -0 0 -0 -0 0 -0 -0 0 -0 -0 0 -0 
0 0.955 0 -0 0 -0 -1.3372 37.97 -76.101 0.15434 -6.428 -33.545 0.15434 -6.428 -33.545 0.385 -5.4103 -28.158 -0 0 -0 -172.13 -48.539 -51.417 75.405 26.691 27.315 -0 0 -0 -0 0 -0 -68.923 24.162 150.7 -84.963 16.054 -128.94 -0 0 -0 -0 0 -0 -0 0 -0 -0 0 -0 -0 0 -0 -0 0 -0 -0 0 -0 -0 0 -0 -0 0 -0 -0 0 -0 -0 0 -0 -0 0 -0 -0 0 -0 -0 0 -0 -0 0 -0 
0 0.955 0 -0 0 -0 -0.95217 38.401 -80.401 1.3071 -5.868 -33.095 1.3071 -5.868 -33.095 1.3302 -4.8932 -27.792 -0 0 -0 -170.57 -42.838 -45.548 73.52 28.087 28.766 -0 0 -0 -0 0 -0 -60.564 21.563 141.19 -79.466 10.763 -123.53 -0 0 -0 -0 0 -0 -0 0 -0 -0 0 -0 -0 0 -0 -0 0 -0 -0 0 -0 -0 0 -0 -0 0 -0 -0 0 -0 -0 0 -0 -0 0 -0 -0 0 -0 -0 0 -0 -0 0 -0 
0 0.955 0 -0 0 -0 -0.020057 38.394 -85.405 2.39 -5.2003 -32.527 2.39 -5.2003 -32.527 2.2122 -4.2897 -27.324 -0 0 -0 -174.06 -39.361 -49.825 74.571 31.178 26.525 -0 0 -0 -0 0 -0 -51.322 16.742 130.99 -72.614 5.4931 -118.29 -0 0 -0 -0 0 -0 -0 0 -0 -0 0 -0 -0 0 -0 -0 0 -0 -0 0 -0 -0 0 -0 -0 0 -0 -0 0 -0 -0 0 -0 -0 0 -0 -0 0 -0 -0 0 -0 -0 0 -0 
0 0.955 0 -0 0 -0 1.4041 38.272 -91.443 3.2874 -4.8525 -31.964 3.2874 -4.8525 -31.964 2.9511 -3.9642 -26.858 -0 0 -0 -172.23 -39.368 -51.187 72.939 32.029 25.642 -0 0 -0 -0 0 -0 -44.127 11.369 122.1 -66.262 0.26378 -112.48 -0 0 -0 -0 0 -0 -0 0 -0 -0 0 -0 -0 0 -0 -0 0 -0 -0 0 -0 -0 0 -0 -0 0 -0 -0 0 -0 -0 0 -0 -0 0 -0 -0 0 -0 -0 0 -0 -0 0 -0 
0 0.955 0 -0 0 -0 3.1489 37.906 -98.205 4.2967 -4.5498 -31.51 4.2967 -4.5498 -31.51 3.787 -3.6733 -26.483 -0 0 -0 -167.58 -42.829 -51.303 70.205 32.248 24.666 -0 0 -0 -0 0 -0 -38.828 5.0907 113.66 -60.41 -5.6202 -105.99 -0 0 -0 -0 0 -0 -0 0 -0 -0 0 -0 -0 0 -0 -0 0 -0 -0 0 -0 -0 0 -0 -0 0 -0 -0 0 -0 -0 0 -0 -0 0 -0 -0 0 -0 -0 0 -0 -0 0 -0 
0 0.955 0 -0 0 -0 4.9388 37.171 -104.67 5.3224 -4.0822 -31.243 5.3224 -4.0822 -31.243 4.6319 -3.243 -26.264 -0 0 -0 -166.03 -47.976 -55.615 68.902 32.977 22.077 -0 0 -0 -0 0 -0 -34.524 -1.4845 107.25 -55.032 -10.284 -99.831 -0 0 -0 -0 0 -0 -0 0 -0 -0 0 -0 -0 0 -0 -0 0 -0 -0 0 -0 -0 0 -0 -0 0 -0 -0 0 -0 -0 0 -0 -0 0 -0 -0 0 -0 -0 0 -0 -0 0 -0 
0 0.955 0 -0 0 -0 6.5522 36.282 -110.45 6.3549 -3.4736 -31.336 6.3549 -3.4736 -31.336 5.4798 -2.6918 -26.345 -0 0 -0 -168.18 -53.272 -64.253 67.821 33.354 19.678 -0 0 -0 -0 0 -0 -31.57 -8.1949 104.48 -50.795 -12.894 -95.918 -0 0 -0 -0 0 -0 -0 0 -0 -0 0 -0 -0 0 -0 -0 0 -0 -0 0 -0 -0 0 -0 -0 0 -0 -0 0 -0 -0 0 -0 -0 0 -0 -0 0 -0 -0 0 -0 -0 0 -0 
